<?xml version="1.0" encoding="UTF-8" standalone="no"?>
<!DOCTYPE svg PUBLIC "-//W3C//DTD SVG 1.1//EN"
 "http://www.w3.org/Graphics/SVG/1.1/DTD/svg11.dtd">
<!-- Generated by graphviz version 2.43.0 (0)
 -->
<!-- Title: gocallvis Pages: 1 -->
<svg width="887pt" height="789pt"
 viewBox="0.00 0.00 887.00 789.00" xmlns="http://www.w3.org/2000/svg" xmlns:xlink="http://www.w3.org/1999/xlink">
<g id="graph0" class="graph" transform="scale(1 1) rotate(0) translate(0 789)">
<title>gocallvis</title>
<polygon fill="lightgray" stroke="transparent" points="0,0 0,-789 887,-789 887,0 0,0"/>
<text text-anchor="middle" x="174" y="-7.8" font-family="Arial" font-size="14.00">github.com/intelops/tarian&#45;detector/cmd/tarian_detector</text>
<g id="clust1" class="cluster">
<title>cluster_focus</title>
<polygon fill="#e6ecfa" stroke="black" stroke-width="0.5" points="8,-31 8,-781 879,-781 879,-31 8,-31"/>
<text text-anchor="middle" x="443.5" y="-762.6" font-family="Arial" font-size="18.00">main</text>
</g>
<g id="clust2" class="cluster">
<title>cluster_fmt</title>
<g id="a_clust2"><a xlink:href="/?f=fmt" xlink:title="package: fmt">
<polygon fill="#e0ffe1" stroke="black" stroke-width="0.8" points="801,-545 801,-745 871,-745 871,-545 801,-545"/>
<text text-anchor="middle" x="836" y="-728.2" font-family="Tahoma bold" font-size="16.00">fmt</text>
</a>
</g>
</g>
<g id="clust3" class="cluster">
<title>cluster_github.com/cilium/ebpf</title>
<g id="a_clust3"><a xlink:href="/?f=github.com/cilium/ebpf" xlink:title="package: github.com/cilium/ebpf">
<polygon fill="lightyellow" stroke="black" stroke-width="0.8" points="52.5,-667 52.5,-745 181.5,-745 181.5,-667 52.5,-667"/>
<text text-anchor="middle" x="117" y="-728.2" font-family="Tahoma bold" font-size="16.00">ebpf</text>
</a>
</g>
</g>
<g id="clust4" class="cluster">
<title>cluster_github.com/intelops/tarian&#45;detector/pkg/eBPF/c/BPF/process_entry</title>
<g id="a_clust4"><a xlink:href="/?f=github.com/intelops/tarian-detector/pkg/eBPF/c/BPF/process_entry" xlink:title="package: github.com/intelops/tarian&#45;detector/pkg/eBPF/c/BPF/process_entry">
<polygon fill="lightyellow" stroke="black" stroke-width="0.8" points="522,-247 522,-325 699,-325 699,-247 522,-247"/>
<text text-anchor="middle" x="610.5" y="-308.2" font-family="Tahoma bold" font-size="16.00">process_entry</text>
</a>
</g>
</g>
<g id="clust5" class="cluster">
<title>cluster_github.com/intelops/tarian&#45;detector/pkg/inspector/detector</title>
<g id="a_clust5"><a xlink:href="/?f=github.com/intelops/tarian-detector/pkg/inspector/detector" xlink:title="package: github.com/intelops/tarian&#45;detector/pkg/inspector/detector">
<polygon fill="lightyellow" stroke="black" stroke-width="0.8" points="477,-352 477,-674 744,-674 744,-352 477,-352"/>
<text text-anchor="middle" x="610.5" y="-657.2" font-family="Tahoma bold" font-size="16.00">detector</text>
</a>
</g>
</g>
<g id="clust6" class="cluster">
<title>cluster_github.com/intelops/tarian&#45;detector/pkg/inspector/ebpf_manager</title>
<g id="a_clust6"><a xlink:href="/?f=github.com/intelops/tarian-detector/pkg/inspector/ebpf_manager" xlink:title="package: github.com/intelops/tarian&#45;detector/pkg/inspector/ebpf_manager">
<polygon fill="lightyellow" stroke="black" stroke-width="0.8" points="488.5,-39 488.5,-239 732.5,-239 732.5,-39 488.5,-39"/>
<text text-anchor="middle" x="610.5" y="-222.2" font-family="Tahoma bold" font-size="16.00">ebpf_manager</text>
</a>
</g>
</g>
<g id="clust7" class="cluster">
<title>cluster_log</title>
<g id="a_clust7"><a xlink:href="/?f=log" xlink:title="package: log">
<polygon fill="#e0ffe1" stroke="black" stroke-width="0.8" points="312.5,-477 312.5,-555 382.5,-555 382.5,-477 312.5,-477"/>
<text text-anchor="middle" x="347.5" y="-538.2" font-family="Tahoma bold" font-size="16.00">log</text>
</a>
</g>
</g>
<g id="clust8" class="cluster">
<title>cluster_runtime</title>
<g id="a_clust8"><a xlink:href="/?f=runtime" xlink:title="package: runtime">
<polygon fill="#e0ffe1" stroke="black" stroke-width="0.8" points="16,-520 16,-659 218,-659 218,-520 16,-520"/>
<text text-anchor="middle" x="117" y="-642.2" font-family="Tahoma bold" font-size="16.00">runtime</text>
</a>
</g>
</g>
<g id="clust9" class="cluster">
<title>cluster_sync</title>
<g id="a_clust9"><a xlink:href="/?f=sync" xlink:title="package: sync">
<polygon fill="#e0ffe1" stroke="black" stroke-width="0.8" points="51,-434 51,-512 183,-512 183,-434 51,-434"/>
<text text-anchor="middle" x="117" y="-495.2" font-family="Tahoma bold" font-size="16.00">sync</text>
</a>
</g>
</g>
<g id="clust10" class="cluster">
<title>cluster_time</title>
<g id="a_clust10"><a xlink:href="/?f=time" xlink:title="package: time">
<polygon fill="#e0ffe1" stroke="black" stroke-width="0.8" points="312.5,-112 312.5,-190 382.5,-190 382.5,-112 312.5,-112"/>
<text text-anchor="middle" x="347.5" y="-173.2" font-family="Tahoma bold" font-size="16.00">time</text>
</a>
</g>
</g>
<!-- github.com/intelops/tarian&#45;detector/cmd/tarian_detector.main$1 -->
<g id="node1" class="node">
<title>github.com/intelops/tarian&#45;detector/cmd/tarian_detector.main$1</title>
<g id="a_node1"><a xlink:title="github.com/intelops/tarian&#45;detector/cmd/tarian_detector.main$1 | defined in main.go:37&#10;at main.go:39: calling [(*github.com/intelops/tarian&#45;detector/pkg/inspector/detector.EventsDetector).ReadAsInterface]&#10;at main.go:44: calling [github.com/intelops/tarian&#45;detector/cmd/tarian_detector.printEvent]&#10;at main.go:41: calling [fmt.Println]">
<polygon fill="lightblue" stroke="transparent" stroke-dasharray="1,5" points="378,-639 317,-639 317,-603 378,-603 378,-639"/>
<text text-anchor="middle" x="347.5" y="-617.3" font-family="Verdana" font-size="14.00">main$1</text>
</a>
</g>
</g>
<!-- github.com/intelops/tarian&#45;detector/cmd/tarian_detector.printEvent -->
<g id="node2" class="node">
<title>github.com/intelops/tarian&#45;detector/cmd/tarian_detector.printEvent</title>
<g id="a_node2"><a xlink:title="github.com/intelops/tarian&#45;detector/cmd/tarian_detector.printEvent | defined in main.go:54&#10;at main.go:55: calling [fmt.Println]&#10;at main.go:59: calling [fmt.Println]&#10;at main.go:57: calling [fmt.Printf]">
<path fill="lightblue" stroke="transparent" stroke-width="0.5" d="M639,-745C639,-745 582,-745 582,-745 576,-745 570,-739 570,-733 570,-733 570,-721 570,-721 570,-715 576,-709 582,-709 582,-709 639,-709 639,-709 645,-709 651,-715 651,-721 651,-721 651,-733 651,-733 651,-739 645,-745 639,-745"/>
<text text-anchor="middle" x="610.5" y="-723.3" font-family="Verdana" font-size="14.00">printEvent</text>
</a>
</g>
</g>
<!-- github.com/intelops/tarian&#45;detector/cmd/tarian_detector.main$1&#45;&gt;github.com/intelops/tarian&#45;detector/cmd/tarian_detector.printEvent -->
<g id="edge11" class="edge">
<title>github.com/intelops/tarian&#45;detector/cmd/tarian_detector.main$1&#45;&gt;github.com/intelops/tarian&#45;detector/cmd/tarian_detector.printEvent</title>
<g id="a_edge11"><a xlink:title="at main.go:44: calling [github.com/intelops/tarian&#45;detector/cmd/tarian_detector.printEvent]">
<path fill="none" stroke="black" d="M369.57,-639.21C388.78,-654.9 418.58,-677.01 448,-690 483.74,-705.78 527,-715.23 559.76,-720.62"/>
<polygon fill="black" stroke="black" points="559.58,-724.14 570,-722.24 560.67,-717.22 559.58,-724.14"/>
</a>
</g>
</g>
<!-- fmt.Println -->
<g id="node5" class="node">
<title>fmt.Println</title>
<g id="a_node5"><a xlink:title="fmt.Println | defined in print.go:313">
<path fill="#adedad" stroke="transparent" stroke-width="1.5" d="M851,-650C851,-650 821,-650 821,-650 815,-650 809,-644 809,-638 809,-638 809,-626 809,-626 809,-620 815,-614 821,-614 821,-614 851,-614 851,-614 857,-614 863,-620 863,-626 863,-626 863,-638 863,-638 863,-644 857,-650 851,-650"/>
<text text-anchor="middle" x="836" y="-628.3" font-family="Verdana" font-size="14.00">Println</text>
</a>
</g>
</g>
<!-- github.com/intelops/tarian&#45;detector/cmd/tarian_detector.main$1&#45;&gt;fmt.Println -->
<g id="edge15" class="edge">
<title>github.com/intelops/tarian&#45;detector/cmd/tarian_detector.main$1&#45;&gt;fmt.Println</title>
<g id="a_edge15"><a xlink:title="at main.go:41: calling [fmt.Println]">
<path fill="none" stroke="saddlebrown" d="M378.18,-638.46C403.48,-652.27 441.31,-670.44 477,-678 535.05,-690.3 686.28,-691.76 744,-678 763.61,-673.32 783.79,-663.7 800.14,-654.46"/>
<polygon fill="saddlebrown" stroke="saddlebrown" points="801.94,-657.47 808.81,-649.4 798.41,-651.42 801.94,-657.47"/>
</a>
</g>
</g>
<!-- (*github.com/intelops/tarian&#45;detector/pkg/inspector/detector.EventsDetector).ReadAsInterface -->
<g id="node10" class="node">
<title>(*github.com/intelops/tarian&#45;detector/pkg/inspector/detector.EventsDetector).ReadAsInterface</title>
<g id="a_node10"><a xlink:title="(*github.com/intelops/tarian&#45;detector/pkg/inspector/detector.EventsDetector).ReadAsInterface | defined in detector.go:69">
<path fill="moccasin" stroke="transparent" stroke-width="1.5" d="M724,-640C724,-640 497,-640 497,-640 491,-640 485,-634 485,-628 485,-628 485,-616 485,-616 485,-610 491,-604 497,-604 497,-604 724,-604 724,-604 730,-604 736,-610 736,-616 736,-616 736,-628 736,-628 736,-634 730,-640 724,-640"/>
<text text-anchor="middle" x="610.5" y="-618.3" font-family="Verdana" font-size="14.00">(*EventsDetector).ReadAsInterface</text>
</a>
</g>
</g>
<!-- github.com/intelops/tarian&#45;detector/cmd/tarian_detector.main$1&#45;&gt;(*github.com/intelops/tarian&#45;detector/pkg/inspector/detector.EventsDetector).ReadAsInterface -->
<g id="edge9" class="edge">
<title>github.com/intelops/tarian&#45;detector/cmd/tarian_detector.main$1&#45;&gt;(*github.com/intelops/tarian&#45;detector/pkg/inspector/detector.EventsDetector).ReadAsInterface</title>
<g id="a_edge9"><a xlink:title="at main.go:39: calling [(*github.com/intelops/tarian&#45;detector/pkg/inspector/detector.EventsDetector).ReadAsInterface]">
<path fill="none" stroke="saddlebrown" d="M378.19,-621.11C402.31,-621.21 438.17,-621.34 474.51,-621.48"/>
<polygon fill="saddlebrown" stroke="saddlebrown" points="474.74,-624.98 484.76,-621.52 474.77,-617.98 474.74,-624.98"/>
</a>
</g>
</g>
<!-- github.com/intelops/tarian&#45;detector/cmd/tarian_detector.printEvent&#45;&gt;fmt.Println -->
<g id="edge1" class="edge">
<title>github.com/intelops/tarian&#45;detector/cmd/tarian_detector.printEvent&#45;&gt;fmt.Println</title>
<g id="a_edge1"><a xlink:title="at main.go:55: calling [fmt.Println]&#10;at main.go:59: calling [fmt.Println]">
<path fill="none" stroke="saddlebrown" d="M651.11,-723.91C685.15,-719.9 734.68,-710.75 773,-690 788.2,-681.77 788.39,-674.82 801,-663 803.08,-661.05 805.23,-659.05 807.41,-657.04"/>
<polygon fill="saddlebrown" stroke="saddlebrown" points="809.78,-659.61 814.78,-650.27 805.05,-654.45 809.78,-659.61"/>
</a>
</g>
</g>
<!-- fmt.Printf -->
<g id="node6" class="node">
<title>fmt.Printf</title>
<g id="a_node6"><a xlink:title="fmt.Printf | defined in print.go:232">
<path fill="#adedad" stroke="transparent" stroke-width="1.5" d="M851,-711C851,-711 821,-711 821,-711 815,-711 809,-705 809,-699 809,-699 809,-687 809,-687 809,-681 815,-675 821,-675 821,-675 851,-675 851,-675 857,-675 863,-681 863,-687 863,-687 863,-699 863,-699 863,-705 857,-711 851,-711"/>
<text text-anchor="middle" x="836" y="-689.3" font-family="Verdana" font-size="14.00">Printf</text>
</a>
</g>
</g>
<!-- github.com/intelops/tarian&#45;detector/cmd/tarian_detector.printEvent&#45;&gt;fmt.Printf -->
<g id="edge10" class="edge">
<title>github.com/intelops/tarian&#45;detector/cmd/tarian_detector.printEvent&#45;&gt;fmt.Printf</title>
<g id="a_edge10"><a xlink:title="at main.go:57: calling [fmt.Printf]">
<path fill="none" stroke="saddlebrown" d="M651.13,-727.91C684.11,-727.87 732.11,-725.95 773,-717 781.67,-715.1 790.73,-712.18 799.16,-709.02"/>
<polygon fill="saddlebrown" stroke="saddlebrown" points="800.69,-712.17 808.7,-705.24 798.11,-705.66 800.69,-712.17"/>
</a>
</g>
</g>
<!-- github.com/intelops/tarian&#45;detector/cmd/tarian_detector.getEbpfPrograms -->
<g id="node3" class="node">
<title>github.com/intelops/tarian&#45;detector/cmd/tarian_detector.getEbpfPrograms</title>
<g id="a_node3"><a xlink:title="github.com/intelops/tarian&#45;detector/cmd/tarian_detector.getEbpfPrograms | defined in programs.go:12&#10;at programs.go:19: calling [(*github.com/intelops/tarian&#45;detector/pkg/inspector/ebpf_manager.EbpfPrograms).Add]&#10;at programs.go:22: calling [(*github.com/intelops/tarian&#45;detector/pkg/inspector/ebpf_manager.EbpfPrograms).LoadPrograms]&#10;at programs.go:17: calling [github.com/intelops/tarian&#45;detector/pkg/inspector/ebpf_manager.NewEbpfProgram]&#10;at programs.go:14: calling [github.com/intelops/tarian&#45;detector/pkg/eBPF/c/BPF/process_entry.NewProcessEntryEbpf]">
<path fill="lightblue" stroke="transparent" stroke-width="0.5" d="M400,-234C400,-234 295,-234 295,-234 289,-234 283,-228 283,-222 283,-222 283,-210 283,-210 283,-204 289,-198 295,-198 295,-198 400,-198 400,-198 406,-198 412,-204 412,-210 412,-210 412,-222 412,-222 412,-228 406,-234 400,-234"/>
<text text-anchor="middle" x="347.5" y="-212.3" font-family="Verdana" font-size="14.00">getEbpfPrograms</text>
</a>
</g>
</g>
<!-- github.com/intelops/tarian&#45;detector/pkg/eBPF/c/BPF/process_entry.NewProcessEntryEbpf -->
<g id="node9" class="node">
<title>github.com/intelops/tarian&#45;detector/pkg/eBPF/c/BPF/process_entry.NewProcessEntryEbpf</title>
<g id="a_node9"><a xlink:title="github.com/intelops/tarian&#45;detector/pkg/eBPF/c/BPF/process_entry.NewProcessEntryEbpf | defined in process_entry.go:16">
<path fill="moccasin" stroke="transparent" stroke-width="1.5" d="M679,-291C679,-291 542,-291 542,-291 536,-291 530,-285 530,-279 530,-279 530,-267 530,-267 530,-261 536,-255 542,-255 542,-255 679,-255 679,-255 685,-255 691,-261 691,-267 691,-267 691,-279 691,-279 691,-285 685,-291 679,-291"/>
<text text-anchor="middle" x="610.5" y="-269.3" font-family="Verdana" font-size="14.00">NewProcessEntryEbpf</text>
</a>
</g>
</g>
<!-- github.com/intelops/tarian&#45;detector/cmd/tarian_detector.getEbpfPrograms&#45;&gt;github.com/intelops/tarian&#45;detector/pkg/eBPF/c/BPF/process_entry.NewProcessEntryEbpf -->
<g id="edge21" class="edge">
<title>github.com/intelops/tarian&#45;detector/cmd/tarian_detector.getEbpfPrograms&#45;&gt;github.com/intelops/tarian&#45;detector/pkg/eBPF/c/BPF/process_entry.NewProcessEntryEbpf</title>
<g id="a_edge21"><a xlink:title="at programs.go:14: calling [github.com/intelops/tarian&#45;detector/pkg/eBPF/c/BPF/process_entry.NewProcessEntryEbpf]">
<path fill="none" stroke="saddlebrown" d="M412.19,-230.55C432.85,-235.23 455.89,-240.39 477,-245 490.9,-248.04 505.64,-251.2 520.04,-254.27"/>
<polygon fill="saddlebrown" stroke="saddlebrown" points="519.43,-257.72 529.94,-256.37 520.88,-250.87 519.43,-257.72"/>
</a>
</g>
</g>
<!-- github.com/intelops/tarian&#45;detector/pkg/inspector/ebpf_manager.NewEbpfProgram -->
<g id="node15" class="node">
<title>github.com/intelops/tarian&#45;detector/pkg/inspector/ebpf_manager.NewEbpfProgram</title>
<g id="a_node15"><a xlink:title="github.com/intelops/tarian&#45;detector/pkg/inspector/ebpf_manager.NewEbpfProgram | defined in ebpf_manager.go:60">
<path fill="moccasin" stroke="transparent" stroke-width="1.5" d="M663,-83C663,-83 558,-83 558,-83 552,-83 546,-77 546,-71 546,-71 546,-59 546,-59 546,-53 552,-47 558,-47 558,-47 663,-47 663,-47 669,-47 675,-53 675,-59 675,-59 675,-71 675,-71 675,-77 669,-83 663,-83"/>
<text text-anchor="middle" x="610.5" y="-61.3" font-family="Verdana" font-size="14.00">NewEbpfProgram</text>
</a>
</g>
</g>
<!-- github.com/intelops/tarian&#45;detector/cmd/tarian_detector.getEbpfPrograms&#45;&gt;github.com/intelops/tarian&#45;detector/pkg/inspector/ebpf_manager.NewEbpfProgram -->
<g id="edge17" class="edge">
<title>github.com/intelops/tarian&#45;detector/cmd/tarian_detector.getEbpfPrograms&#45;&gt;github.com/intelops/tarian&#45;detector/pkg/inspector/ebpf_manager.NewEbpfProgram</title>
<g id="a_edge17"><a xlink:title="at programs.go:17: calling [github.com/intelops/tarian&#45;detector/pkg/inspector/ebpf_manager.NewEbpfProgram]">
<path fill="none" stroke="saddlebrown" d="M406.5,-197.84C408.41,-196.64 410.25,-195.36 412,-194 453.31,-161.98 434.09,-125.83 477,-96 494.25,-84.01 515.51,-76.6 535.91,-72.05"/>
<polygon fill="saddlebrown" stroke="saddlebrown" points="536.73,-75.46 545.83,-70.04 535.34,-68.6 536.73,-75.46"/>
</a>
</g>
</g>
<!-- (*github.com/intelops/tarian&#45;detector/pkg/inspector/ebpf_manager.EbpfPrograms).Add -->
<g id="node16" class="node">
<title>(*github.com/intelops/tarian&#45;detector/pkg/inspector/ebpf_manager.EbpfPrograms).Add</title>
<g id="a_node16"><a xlink:title="(*github.com/intelops/tarian&#45;detector/pkg/inspector/ebpf_manager.EbpfPrograms).Add | defined in ebpf_manager.go:67">
<path fill="moccasin" stroke="transparent" stroke-width="1.5" d="M676.5,-144C676.5,-144 544.5,-144 544.5,-144 538.5,-144 532.5,-138 532.5,-132 532.5,-132 532.5,-120 532.5,-120 532.5,-114 538.5,-108 544.5,-108 544.5,-108 676.5,-108 676.5,-108 682.5,-108 688.5,-114 688.5,-120 688.5,-120 688.5,-132 688.5,-132 688.5,-138 682.5,-144 676.5,-144"/>
<text text-anchor="middle" x="610.5" y="-122.3" font-family="Verdana" font-size="14.00">(*EbpfPrograms).Add</text>
</a>
</g>
</g>
<!-- github.com/intelops/tarian&#45;detector/cmd/tarian_detector.getEbpfPrograms&#45;&gt;(*github.com/intelops/tarian&#45;detector/pkg/inspector/ebpf_manager.EbpfPrograms).Add -->
<g id="edge6" class="edge">
<title>github.com/intelops/tarian&#45;detector/cmd/tarian_detector.getEbpfPrograms&#45;&gt;(*github.com/intelops/tarian&#45;detector/pkg/inspector/ebpf_manager.EbpfPrograms).Add</title>
<g id="a_edge6"><a xlink:title="at programs.go:19: calling [(*github.com/intelops/tarian&#45;detector/pkg/inspector/ebpf_manager.EbpfPrograms).Add]">
<path fill="none" stroke="saddlebrown" d="M402.81,-197.94C405.94,-196.67 409.02,-195.35 412,-194 442.28,-180.28 446.05,-169.13 477,-157 491.34,-151.38 506.98,-146.61 522.31,-142.62"/>
<polygon fill="saddlebrown" stroke="saddlebrown" points="523.48,-145.93 532.33,-140.11 521.78,-139.14 523.48,-145.93"/>
</a>
</g>
</g>
<!-- (*github.com/intelops/tarian&#45;detector/pkg/inspector/ebpf_manager.EbpfPrograms).LoadPrograms -->
<g id="node17" class="node">
<title>(*github.com/intelops/tarian&#45;detector/pkg/inspector/ebpf_manager.EbpfPrograms).LoadPrograms</title>
<g id="a_node17"><a xlink:title="(*github.com/intelops/tarian&#45;detector/pkg/inspector/ebpf_manager.EbpfPrograms).LoadPrograms | defined in ebpf_manager.go:71">
<path fill="moccasin" stroke="transparent" stroke-width="1.5" d="M712.5,-205C712.5,-205 508.5,-205 508.5,-205 502.5,-205 496.5,-199 496.5,-193 496.5,-193 496.5,-181 496.5,-181 496.5,-175 502.5,-169 508.5,-169 508.5,-169 712.5,-169 712.5,-169 718.5,-169 724.5,-175 724.5,-181 724.5,-181 724.5,-193 724.5,-193 724.5,-199 718.5,-205 712.5,-205"/>
<text text-anchor="middle" x="610.5" y="-183.3" font-family="Verdana" font-size="14.00">(*EbpfPrograms).LoadPrograms</text>
</a>
</g>
</g>
<!-- github.com/intelops/tarian&#45;detector/cmd/tarian_detector.getEbpfPrograms&#45;&gt;(*github.com/intelops/tarian&#45;detector/pkg/inspector/ebpf_manager.EbpfPrograms).LoadPrograms -->
<g id="edge13" class="edge">
<title>github.com/intelops/tarian&#45;detector/cmd/tarian_detector.getEbpfPrograms&#45;&gt;(*github.com/intelops/tarian&#45;detector/pkg/inspector/ebpf_manager.EbpfPrograms).LoadPrograms</title>
<g id="a_edge13"><a xlink:title="at programs.go:22: calling [(*github.com/intelops/tarian&#45;detector/pkg/inspector/ebpf_manager.EbpfPrograms).LoadPrograms]">
<path fill="none" stroke="saddlebrown" d="M412.01,-208.94C434.46,-206.45 460.53,-203.55 486.23,-200.7"/>
<polygon fill="saddlebrown" stroke="saddlebrown" points="486.88,-204.15 496.44,-199.56 486.11,-197.19 486.88,-204.15"/>
</a>
</g>
</g>
<!-- github.com/intelops/tarian&#45;detector/cmd/tarian_detector.main -->
<g id="node4" class="node">
<title>github.com/intelops/tarian&#45;detector/cmd/tarian_detector.main</title>
<g id="a_node4"><a xlink:title="github.com/intelops/tarian&#45;detector/cmd/tarian_detector.main | defined in main.go:14&#10;at main.go:21: calling [log.Fatal]&#10;at main.go:30: calling [log.Fatal]&#10;at main.go:50: calling [time.Sleep]&#10;at main.go:16: calling [github.com/intelops/tarian&#45;detector/pkg/inspector/detector.NewEventsDetector]&#10;at main.go:19: calling [github.com/intelops/tarian&#45;detector/cmd/tarian_detector.getEbpfPrograms]&#10;at main.go:25: calling [(*github.com/intelops/tarian&#45;detector/pkg/inspector/detector.EventsDetector).Add]&#10;at main.go:34: calling [fmt.Print]&#10;at main.go:32: calling [(*github.com/intelops/tarian&#45;detector/pkg/inspector/detector.EventsDetector).Close]&#10;at main.go:37: calling [github.com/intelops/tarian&#45;detector/cmd/tarian_detector.main$1]&#10;at main.go:28: calling [(*github.com/intelops/tarian&#45;detector/pkg/inspector/detector.EventsDetector).Start]">
<path fill="lightblue" stroke="transparent" stroke-width="0.5" d="M132,-417C132,-417 102,-417 102,-417 96,-417 90,-411 90,-405 90,-405 90,-393 90,-393 90,-387 96,-381 102,-381 102,-381 132,-381 132,-381 138,-381 144,-387 144,-393 144,-393 144,-405 144,-405 144,-411 138,-417 132,-417"/>
<text text-anchor="middle" x="117" y="-395.3" font-family="Verdana" font-size="14.00">main</text>
</a>
</g>
</g>
<!-- github.com/intelops/tarian&#45;detector/cmd/tarian_detector.main&#45;&gt;github.com/intelops/tarian&#45;detector/cmd/tarian_detector.main$1 -->
<g id="edge19" class="edge">
<title>github.com/intelops/tarian&#45;detector/cmd/tarian_detector.main&#45;&gt;github.com/intelops/tarian&#45;detector/cmd/tarian_detector.main$1</title>
<g id="a_edge19"><a xlink:title="at main.go:37: calling [github.com/intelops/tarian&#45;detector/cmd/tarian_detector.main$1]">
<path fill="none" stroke="black" d="M144.13,-400.77C166.07,-403.5 197.11,-410.43 218,-428 243.18,-449.17 263.51,-534.5 283,-561 289.79,-570.24 298.11,-579.25 306.46,-587.36"/>
<polygon fill="black" stroke="black" points="313.92,-598.86 323.68,-602.99 318.63,-593.68 313.92,-598.86"/>
<polyline fill="none" stroke="black" points="316.28,-596.27 312.57,-592.91 "/>
<ellipse fill="none" stroke="black" cx="309.61" cy="-590.22" rx="4" ry="4"/>
</a>
</g>
</g>
<!-- github.com/intelops/tarian&#45;detector/cmd/tarian_detector.main&#45;&gt;github.com/intelops/tarian&#45;detector/cmd/tarian_detector.getEbpfPrograms -->
<g id="edge8" class="edge">
<title>github.com/intelops/tarian&#45;detector/cmd/tarian_detector.main&#45;&gt;github.com/intelops/tarian&#45;detector/cmd/tarian_detector.getEbpfPrograms</title>
<g id="a_edge8"><a xlink:title="at main.go:19: calling [github.com/intelops/tarian&#45;detector/cmd/tarian_detector.getEbpfPrograms]">
<path fill="none" stroke="black" d="M140.74,-380.78C182.06,-347.69 269.46,-277.7 315.94,-240.48"/>
<polygon fill="black" stroke="black" points="318.23,-243.13 323.85,-234.14 313.85,-237.66 318.23,-243.13"/>
</a>
</g>
</g>
<!-- fmt.Print -->
<g id="node7" class="node">
<title>fmt.Print</title>
<g id="a_node7"><a xlink:title="fmt.Print | defined in print.go:271">
<path fill="#adedad" stroke="transparent" stroke-width="1.5" d="M851,-589C851,-589 821,-589 821,-589 815,-589 809,-583 809,-577 809,-577 809,-565 809,-565 809,-559 815,-553 821,-553 821,-553 851,-553 851,-553 857,-553 863,-559 863,-565 863,-565 863,-577 863,-577 863,-583 857,-589 851,-589"/>
<text text-anchor="middle" x="836" y="-567.3" font-family="Verdana" font-size="14.00">Print</text>
</a>
</g>
</g>
<!-- github.com/intelops/tarian&#45;detector/cmd/tarian_detector.main&#45;&gt;fmt.Print -->
<g id="edge14" class="edge">
<title>github.com/intelops/tarian&#45;detector/cmd/tarian_detector.main&#45;&gt;fmt.Print</title>
<g id="a_edge14"><a xlink:title="at main.go:34: calling [fmt.Print]">
<path fill="none" stroke="saddlebrown" d="M144.05,-386.47C185.77,-367.58 270.61,-334 346.5,-334 346.5,-334 346.5,-334 611.5,-334 641.06,-334 720.26,-328.38 744,-346 808.02,-393.5 827.11,-493.68 832.72,-542.73"/>
<polygon fill="saddlebrown" stroke="saddlebrown" points="829.27,-543.35 833.78,-552.94 836.23,-542.63 829.27,-543.35"/>
</a>
</g>
</g>
<!-- github.com/intelops/tarian&#45;detector/pkg/inspector/detector.NewEventsDetector -->
<g id="node11" class="node">
<title>github.com/intelops/tarian&#45;detector/pkg/inspector/detector.NewEventsDetector</title>
<g id="a_node11"><a xlink:title="github.com/intelops/tarian&#45;detector/pkg/inspector/detector.NewEventsDetector | defined in detector.go:23">
<path fill="moccasin" stroke="transparent" stroke-width="1.5" d="M671,-579C671,-579 550,-579 550,-579 544,-579 538,-573 538,-567 538,-567 538,-555 538,-555 538,-549 544,-543 550,-543 550,-543 671,-543 671,-543 677,-543 683,-549 683,-555 683,-555 683,-567 683,-567 683,-573 677,-579 671,-579"/>
<text text-anchor="middle" x="610.5" y="-557.3" font-family="Verdana" font-size="14.00">NewEventsDetector</text>
</a>
</g>
</g>
<!-- github.com/intelops/tarian&#45;detector/cmd/tarian_detector.main&#45;&gt;github.com/intelops/tarian&#45;detector/pkg/inspector/detector.NewEventsDetector -->
<g id="edge7" class="edge">
<title>github.com/intelops/tarian&#45;detector/cmd/tarian_detector.main&#45;&gt;github.com/intelops/tarian&#45;detector/pkg/inspector/detector.NewEventsDetector</title>
<g id="a_edge7"><a xlink:title="at main.go:16: calling [github.com/intelops/tarian&#45;detector/pkg/inspector/detector.NewEventsDetector]">
<path fill="none" stroke="saddlebrown" d="M144.25,-405.86C176.77,-414.32 233.89,-429.04 283,-441 340.19,-454.93 359.98,-443.46 412,-471 446.75,-489.4 442.2,-512.7 477,-531 492.62,-539.21 510.43,-545.19 527.81,-549.53"/>
<polygon fill="saddlebrown" stroke="saddlebrown" points="527.44,-553.04 537.97,-551.9 529.03,-546.22 527.44,-553.04"/>
</a>
</g>
</g>
<!-- (*github.com/intelops/tarian&#45;detector/pkg/inspector/detector.EventsDetector).Add -->
<g id="node12" class="node">
<title>(*github.com/intelops/tarian&#45;detector/pkg/inspector/detector.EventsDetector).Add</title>
<g id="a_node12"><a xlink:title="(*github.com/intelops/tarian&#45;detector/pkg/inspector/detector.EventsDetector).Add | defined in detector.go:32">
<path fill="moccasin" stroke="transparent" stroke-width="1.5" d="M680.5,-457C680.5,-457 540.5,-457 540.5,-457 534.5,-457 528.5,-451 528.5,-445 528.5,-445 528.5,-433 528.5,-433 528.5,-427 534.5,-421 540.5,-421 540.5,-421 680.5,-421 680.5,-421 686.5,-421 692.5,-427 692.5,-433 692.5,-433 692.5,-445 692.5,-445 692.5,-451 686.5,-457 680.5,-457"/>
<text text-anchor="middle" x="610.5" y="-435.3" font-family="Verdana" font-size="14.00">(*EventsDetector).Add</text>
</a>
</g>
</g>
<!-- github.com/intelops/tarian&#45;detector/cmd/tarian_detector.main&#45;&gt;(*github.com/intelops/tarian&#45;detector/pkg/inspector/detector.EventsDetector).Add -->
<g id="edge12" class="edge">
<title>github.com/intelops/tarian&#45;detector/cmd/tarian_detector.main&#45;&gt;(*github.com/intelops/tarian&#45;detector/pkg/inspector/detector.EventsDetector).Add</title>
<g id="a_edge12"><a xlink:title="at main.go:25: calling [(*github.com/intelops/tarian&#45;detector/pkg/inspector/detector.EventsDetector).Add]">
<path fill="none" stroke="saddlebrown" d="M144.18,-400.98C200.14,-405.23 335.55,-415.6 449,-425 471.36,-426.85 495.47,-428.92 518.03,-430.88"/>
<polygon fill="saddlebrown" stroke="saddlebrown" points="518.01,-434.4 528.27,-431.78 518.62,-427.42 518.01,-434.4"/>
</a>
</g>
</g>
<!-- (*github.com/intelops/tarian&#45;detector/pkg/inspector/detector.EventsDetector).Start -->
<g id="node13" class="node">
<title>(*github.com/intelops/tarian&#45;detector/pkg/inspector/detector.EventsDetector).Start</title>
<g id="a_node13"><a xlink:title="(*github.com/intelops/tarian&#45;detector/pkg/inspector/detector.EventsDetector).Start | defined in detector.go:36">
<path fill="moccasin" stroke="transparent" stroke-width="1.5" d="M684,-518C684,-518 537,-518 537,-518 531,-518 525,-512 525,-506 525,-506 525,-494 525,-494 525,-488 531,-482 537,-482 537,-482 684,-482 684,-482 690,-482 696,-488 696,-494 696,-494 696,-506 696,-506 696,-512 690,-518 684,-518"/>
<text text-anchor="middle" x="610.5" y="-496.3" font-family="Verdana" font-size="14.00">(*EventsDetector).Start</text>
</a>
</g>
</g>
<!-- github.com/intelops/tarian&#45;detector/cmd/tarian_detector.main&#45;&gt;(*github.com/intelops/tarian&#45;detector/pkg/inspector/detector.EventsDetector).Start -->
<g id="edge22" class="edge">
<title>github.com/intelops/tarian&#45;detector/cmd/tarian_detector.main&#45;&gt;(*github.com/intelops/tarian&#45;detector/pkg/inspector/detector.EventsDetector).Start</title>
<g id="a_edge22"><a xlink:title="at main.go:28: calling [(*github.com/intelops/tarian&#45;detector/pkg/inspector/detector.EventsDetector).Start]">
<path fill="none" stroke="saddlebrown" d="M144.03,-402.87C219.61,-414.15 434.68,-446.53 449,-452 462.82,-457.28 463.36,-464.28 477,-470 488.96,-475.01 501.89,-479.26 514.83,-482.83"/>
<polygon fill="saddlebrown" stroke="saddlebrown" points="514.15,-486.27 524.71,-485.44 515.94,-479.5 514.15,-486.27"/>
</a>
</g>
</g>
<!-- (*github.com/intelops/tarian&#45;detector/pkg/inspector/detector.EventsDetector).Close -->
<g id="node14" class="node">
<title>(*github.com/intelops/tarian&#45;detector/pkg/inspector/detector.EventsDetector).Close</title>
<g id="a_node14"><a xlink:title="(*github.com/intelops/tarian&#45;detector/pkg/inspector/detector.EventsDetector).Close | defined in detector.go:56">
<path fill="moccasin" stroke="transparent" stroke-width="1.5" d="M685.5,-396C685.5,-396 535.5,-396 535.5,-396 529.5,-396 523.5,-390 523.5,-384 523.5,-384 523.5,-372 523.5,-372 523.5,-366 529.5,-360 535.5,-360 535.5,-360 685.5,-360 685.5,-360 691.5,-360 697.5,-366 697.5,-372 697.5,-372 697.5,-384 697.5,-384 697.5,-390 691.5,-396 685.5,-396"/>
<text text-anchor="middle" x="610.5" y="-374.3" font-family="Verdana" font-size="14.00">(*EventsDetector).Close</text>
</a>
</g>
</g>
<!-- github.com/intelops/tarian&#45;detector/cmd/tarian_detector.main&#45;&gt;(*github.com/intelops/tarian&#45;detector/pkg/inspector/detector.EventsDetector).Close -->
<g id="edge18" class="edge">
<title>github.com/intelops/tarian&#45;detector/cmd/tarian_detector.main&#45;&gt;(*github.com/intelops/tarian&#45;detector/pkg/inspector/detector.EventsDetector).Close</title>
<g id="a_edge18"><a xlink:title="at main.go:32: calling [(*github.com/intelops/tarian&#45;detector/pkg/inspector/detector.EventsDetector).Close]">
<path fill="none" stroke="saddlebrown" d="M144.08,-397.89C208.96,-395.11 380.74,-387.77 496.45,-382.83"/>
<polygon fill="saddlebrown" stroke="saddlebrown" points="513.63,-385.6 523.48,-381.68 513.34,-378.61 513.63,-385.6"/>
<polyline fill="none" stroke="saddlebrown" points="513.49,-382.1 508.49,-382.32 "/>
<polygon fill="none" stroke="saddlebrown" points="496.5,-382.83 502.32,-378.58 508.49,-382.32 502.67,-386.57 496.5,-382.83"/>
</a>
</g>
</g>
<!-- log.Fatal -->
<g id="node18" class="node">
<title>log.Fatal</title>
<g id="a_node18"><a xlink:title="log.Fatal | defined in log.go:363">
<path fill="#adedad" stroke="transparent" stroke-width="1.5" d="M362.5,-521C362.5,-521 332.5,-521 332.5,-521 326.5,-521 320.5,-515 320.5,-509 320.5,-509 320.5,-497 320.5,-497 320.5,-491 326.5,-485 332.5,-485 332.5,-485 362.5,-485 362.5,-485 368.5,-485 374.5,-491 374.5,-497 374.5,-497 374.5,-509 374.5,-509 374.5,-515 368.5,-521 362.5,-521"/>
<text text-anchor="middle" x="347.5" y="-499.3" font-family="Verdana" font-size="14.00">Fatal</text>
</a>
</g>
</g>
<!-- github.com/intelops/tarian&#45;detector/cmd/tarian_detector.main&#45;&gt;log.Fatal -->
<g id="edge2" class="edge">
<title>github.com/intelops/tarian&#45;detector/cmd/tarian_detector.main&#45;&gt;log.Fatal</title>
<g id="a_edge2"><a xlink:title="at main.go:21: calling [log.Fatal]&#10;at main.go:30: calling [log.Fatal]">
<path fill="none" stroke="saddlebrown" d="M144.23,-401.89C165.66,-405.3 195.91,-412.59 218,-428 235.21,-440 229.43,-453.13 246,-466 260.01,-476.89 266.39,-474.76 283,-481 291.98,-484.37 301.75,-487.85 310.87,-491.02"/>
<polygon fill="saddlebrown" stroke="saddlebrown" points="309.84,-494.37 320.44,-494.31 312.12,-487.75 309.84,-494.37"/>
</a>
</g>
</g>
<!-- time.Sleep -->
<g id="node22" class="node">
<title>time.Sleep</title>
<g id="a_node22"><a xlink:title="time.Sleep | defined in sleep.go:9">
<path fill="#adedad" stroke="transparent" stroke-width="1.5" d="M362.5,-156C362.5,-156 332.5,-156 332.5,-156 326.5,-156 320.5,-150 320.5,-144 320.5,-144 320.5,-132 320.5,-132 320.5,-126 326.5,-120 332.5,-120 332.5,-120 362.5,-120 362.5,-120 368.5,-120 374.5,-126 374.5,-132 374.5,-132 374.5,-144 374.5,-144 374.5,-150 368.5,-156 362.5,-156"/>
<text text-anchor="middle" x="347.5" y="-134.3" font-family="Verdana" font-size="14.00">Sleep</text>
</a>
</g>
</g>
<!-- github.com/intelops/tarian&#45;detector/cmd/tarian_detector.main&#45;&gt;time.Sleep -->
<g id="edge3" class="edge">
<title>github.com/intelops/tarian&#45;detector/cmd/tarian_detector.main&#45;&gt;time.Sleep</title>
<g id="a_edge3"><a xlink:title="at main.go:50: calling [time.Sleep]">
<path fill="none" stroke="saddlebrown" d="M125.67,-380.8C145.23,-336.49 201.32,-222.1 283,-160 291.07,-153.87 300.97,-149.37 310.53,-146.09"/>
<polygon fill="saddlebrown" stroke="saddlebrown" points="311.74,-149.38 320.28,-143.11 309.69,-142.69 311.74,-149.38"/>
</a>
</g>
</g>
<!-- (*github.com/cilium/ebpf.Program).run -->
<g id="node8" class="node">
<title>(*github.com/cilium/ebpf.Program).run</title>
<g id="a_node8"><a xlink:title="(*github.com/cilium/ebpf.Program).run | defined in prog.go:648&#10;at prog.go:715: calling [github.com/intelops/tarian&#45;detector/cmd/tarian_detector.main$1]">
<path fill="moccasin" stroke="transparent" stroke-width="0.5" d="M161.5,-711C161.5,-711 72.5,-711 72.5,-711 66.5,-711 60.5,-705 60.5,-699 60.5,-699 60.5,-687 60.5,-687 60.5,-681 66.5,-675 72.5,-675 72.5,-675 161.5,-675 161.5,-675 167.5,-675 173.5,-681 173.5,-687 173.5,-687 173.5,-699 173.5,-699 173.5,-705 167.5,-711 161.5,-711"/>
<text text-anchor="middle" x="117" y="-689.3" font-family="Verdana" font-size="14.00">(*Program).run</text>
</a>
</g>
</g>
<!-- (*github.com/cilium/ebpf.Program).run&#45;&gt;github.com/intelops/tarian&#45;detector/cmd/tarian_detector.main$1 -->
<g id="edge20" class="edge">
<title>(*github.com/cilium/ebpf.Program).run&#45;&gt;github.com/intelops/tarian&#45;detector/cmd/tarian_detector.main$1</title>
<g id="a_edge20"><a xlink:title="at prog.go:715: calling [github.com/intelops/tarian&#45;detector/cmd/tarian_detector.main$1]">
<path fill="none" stroke="saddlebrown" stroke-dasharray="5,2" d="M173.7,-678.01C188.18,-673.95 203.71,-669.44 218,-665 248.12,-655.64 281.84,-644.05 307.18,-635.11"/>
<polygon fill="saddlebrown" stroke="saddlebrown" points="308.54,-638.34 316.8,-631.71 306.2,-631.75 308.54,-638.34"/>
</a>
</g>
</g>
<!-- runtime.tryRecordGoroutineProfile -->
<g id="node19" class="node">
<title>runtime.tryRecordGoroutineProfile</title>
<g id="a_node19"><a xlink:title="runtime.tryRecordGoroutineProfile | defined in mprof.go:1021&#10;at mprof.go:1045: calling [github.com/intelops/tarian&#45;detector/cmd/tarian_detector.main$1]">
<path fill="#adedad" stroke="transparent" stroke-width="0.5" d="M198,-625C198,-625 36,-625 36,-625 30,-625 24,-619 24,-613 24,-613 24,-601 24,-601 24,-595 30,-589 36,-589 36,-589 198,-589 198,-589 204,-589 210,-595 210,-601 210,-601 210,-613 210,-613 210,-619 204,-625 198,-625"/>
<text text-anchor="middle" x="117" y="-603.3" font-family="Verdana" font-size="14.00">tryRecordGoroutineProfile</text>
</a>
</g>
</g>
<!-- runtime.tryRecordGoroutineProfile&#45;&gt;github.com/intelops/tarian&#45;detector/cmd/tarian_detector.main$1 -->
<g id="edge16" class="edge">
<title>runtime.tryRecordGoroutineProfile&#45;&gt;github.com/intelops/tarian&#45;detector/cmd/tarian_detector.main$1</title>
<g id="a_edge16"><a xlink:title="at mprof.go:1045: calling [github.com/intelops/tarian&#45;detector/cmd/tarian_detector.main$1]">
<path fill="none" stroke="saddlebrown" stroke-dasharray="5,2" d="M210.28,-612.65C243.85,-614.71 280.05,-616.93 306.69,-618.56"/>
<polygon fill="saddlebrown" stroke="saddlebrown" points="306.57,-622.06 316.76,-619.18 307,-615.07 306.57,-622.06"/>
</a>
</g>
</g>
<!-- runtime.clearpools -->
<g id="node20" class="node">
<title>runtime.clearpools</title>
<g id="a_node20"><a xlink:title="runtime.clearpools | defined in mgc.go:1627&#10;at mgc.go:1630: calling [github.com/intelops/tarian&#45;detector/cmd/tarian_detector.main$1]">
<path fill="#adedad" stroke="transparent" stroke-width="0.5" d="M144.5,-564C144.5,-564 89.5,-564 89.5,-564 83.5,-564 77.5,-558 77.5,-552 77.5,-552 77.5,-540 77.5,-540 77.5,-534 83.5,-528 89.5,-528 89.5,-528 144.5,-528 144.5,-528 150.5,-528 156.5,-534 156.5,-540 156.5,-540 156.5,-552 156.5,-552 156.5,-558 150.5,-564 144.5,-564"/>
<text text-anchor="middle" x="117" y="-542.3" font-family="Verdana" font-size="14.00">clearpools</text>
</a>
</g>
</g>
<!-- runtime.clearpools&#45;&gt;github.com/intelops/tarian&#45;detector/cmd/tarian_detector.main$1 -->
<g id="edge4" class="edge">
<title>runtime.clearpools&#45;&gt;github.com/intelops/tarian&#45;detector/cmd/tarian_detector.main$1</title>
<g id="a_edge4"><a xlink:title="at mgc.go:1630: calling [github.com/intelops/tarian&#45;detector/cmd/tarian_detector.main$1]">
<path fill="none" stroke="saddlebrown" stroke-dasharray="5,2" d="M156.55,-557.66C175.16,-563.36 197.78,-570.41 218,-577 248.08,-586.81 281.93,-598.43 307.34,-607.26"/>
<polygon fill="saddlebrown" stroke="saddlebrown" points="306.39,-610.63 316.98,-610.62 308.69,-604.02 306.39,-610.63"/>
</a>
</g>
</g>
<!-- (*sync.Once).doSlow -->
<g id="node21" class="node">
<title>(*sync.Once).doSlow</title>
<g id="a_node21"><a xlink:title="(*sync.Once).doSlow | defined in once.go:69&#10;at once.go:74: calling [github.com/intelops/tarian&#45;detector/cmd/tarian_detector.main$1]">
<path fill="#adedad" stroke="transparent" stroke-width="0.5" d="M163,-478C163,-478 71,-478 71,-478 65,-478 59,-472 59,-466 59,-466 59,-454 59,-454 59,-448 65,-442 71,-442 71,-442 163,-442 163,-442 169,-442 175,-448 175,-454 175,-454 175,-466 175,-466 175,-472 169,-478 163,-478"/>
<text text-anchor="middle" x="117" y="-456.3" font-family="Verdana" font-size="14.00">(*Once).doSlow</text>
</a>
</g>
</g>
<!-- (*sync.Once).doSlow&#45;&gt;github.com/intelops/tarian&#45;detector/cmd/tarian_detector.main$1 -->
<g id="edge5" class="edge">
<title>(*sync.Once).doSlow&#45;&gt;github.com/intelops/tarian&#45;detector/cmd/tarian_detector.main$1</title>
<g id="a_edge5"><a xlink:title="at once.go:74: calling [github.com/intelops/tarian&#45;detector/cmd/tarian_detector.main$1]">
<path fill="none" stroke="saddlebrown" stroke-dasharray="5,2" d="M156.16,-478.18C175.29,-487.89 198.48,-500.59 218,-514 231.51,-523.28 233.46,-527.45 246,-538 269.59,-557.85 296.53,-580.08 316.58,-596.53"/>
<polygon fill="saddlebrown" stroke="saddlebrown" points="314.49,-599.35 324.45,-602.98 318.93,-593.93 314.49,-599.35"/>
</a>
</g>
</g>
</g>
</svg>
